<?xml version="1.0" standalone="no"?>
<!DOCTYPE svg PUBLIC "-//W3C//DTD SVG 20010904//EN"
 "http://www.w3.org/TR/2001/REC-SVG-20010904/DTD/svg10.dtd">
<svg version="1.0" xmlns="http://www.w3.org/2000/svg"
 width="700.000000pt" height="700.000000pt" viewBox="0 0 700.000000 700.000000"
 preserveAspectRatio="xMidYMid meet">
<metadata>
Created by potrace 1.14, written by Peter Selinger 2001-2017
</metadata>
<g transform="translate(0.000000,700.000000) scale(0.100000,-0.100000)"
fill="#000000" stroke="none">
<path d="M2003 6985 c-102 -31 -176 -97 -222 -195 -20 -45 -26 -74 -29 -157
l-4 -103 -34 0 c-83 0 -206 -76 -259 -160 -47 -74 -55 -128 -55 -352 0 -166 3
-215 15 -238 25 -49 51 -60 143 -60 57 0 84 -4 87 -12 2 -7 29 -231 60 -498
31 -267 58 -497 61 -512 l6 -28 -141 0 c-260 0 -442 -32 -621 -109 -359 -155
-636 -477 -734 -854 -50 -194 -59 -462 -18 -542 45 -88 111 -126 234 -133 l88
-5 0 -183 c0 -162 -2 -184 -16 -184 -36 0 -156 -75 -204 -127 -172 -188 -167
-459 13 -637 54 -54 123 -98 189 -120 16 -5 18 -23 18 -191 l0 -185 -72 0
c-96 0 -141 -14 -189 -57 -77 -70 -83 -92 -87 -317 -2 -111 1 -242 7 -295 20
-165 90 -330 190 -443 23 -25 41 -49 41 -52 0 -3 -89 -6 -198 -6 -216 0 -227
-3 -257 -60 -29 -57 -10 -121 45 -154 26 -15 299 -16 3442 -16 2757 1 3417 3
3436 14 55 30 76 100 47 156 -31 60 -32 60 -352 60 -259 0 -293 2 -293 16 0 8
97 646 215 1417 171 1121 213 1410 206 1440 -27 116 -132 177 -289 166 l-50
-4 -4 215 c-3 208 -4 217 -28 260 -14 24 -44 58 -68 75 l-44 30 -224 3 -224 3
0 137 c0 215 5 212 -335 212 l-245 0 0 33 c0 49 -45 131 -88 161 -21 14 -43
26 -49 26 -7 0 -15 4 -18 10 -5 8 128 1207 141 1268 4 21 9 22 90 22 85 0 87
1 121 35 l34 34 -3 243 c-3 239 -3 244 -29 299 -49 104 -153 181 -267 197
l-47 7 -5 105 c-6 120 -25 172 -86 240 -49 54 -96 84 -164 104 -48 14 -203 16
-1444 15 -1121 0 -1399 -3 -1433 -14z m2817 -228 c56 -19 80 -66 80 -154 l0
-73 -1457 2 -1458 3 0 77 c0 89 19 125 76 145 49 17 2709 17 2759 0z m365
-473 c53 -25 65 -63 65 -208 l0 -126 -1811 0 -1811 0 4 134 c3 118 6 138 24
163 11 15 32 34 45 40 19 10 397 13 1737 13 1540 0 1717 -2 1747 -16z m-435
-586 c0 -21 -130 -1221 -135 -1244 -3 -15 -15 -24 -38 -28 -19 -4 -52 -22 -73
-40 l-39 -34 -40 32 c-151 122 -328 207 -535 259 -83 20 -109 21 -982 24
l-898 4 -5 22 c-5 26 -115 978 -115 1001 0 15 127 16 1430 16 1137 0 1430 -3
1430 -12z m-879 -1300 c117 -32 223 -80 321 -144 l73 -49 -142 -5 c-137 -5
-143 -6 -184 -35 -23 -16 -53 -50 -66 -74 -21 -41 -23 -56 -23 -198 l0 -153
-191 0 c-233 0 -267 -7 -329 -70 -59 -58 -70 -100 -70 -269 l0 -131 -1396 0
-1397 0 6 138 c11 278 102 500 285 693 160 171 363 280 591 319 25 4 581 7
1236 6 l1190 -1 96 -27z m1139 -1169 l0 -972 -152 6 c-84 3 -161 8 -170 12
-17 7 -18 62 -18 966 l0 959 170 0 170 0 0 -971z m-580 -69 c0 -650 -3 -810
-13 -810 -22 0 -163 85 -231 140 -118 93 -106 3 -106 785 0 375 3 685 7 688 3
4 82 7 175 7 l168 0 0 -810z m1170 63 l0 -748 -73 -46 c-89 -58 -113 -70 -204
-103 l-73 -26 0 835 0 835 175 0 175 0 0 -747z m580 182 l0 -205 -40 -25
c-104 -65 -155 -130 -242 -305 l-57 -115 0 428 -1 427 170 0 170 0 0 -205z
m-2330 -166 l0 -261 -45 61 c-53 72 -155 151 -240 185 l-60 24 -3 126 -3 126
176 0 175 0 0 -261z m-789 -376 c14 -93 24 -171 22 -175 -2 -5 -95 -8 -206 -8
-176 0 -207 -3 -242 -19 -26 -12 -146 -125 -340 -320 -165 -166 -304 -301
-310 -301 -5 0 -147 137 -315 305 -202 202 -317 309 -342 320 -30 12 -83 15
-273 15 l-235 0 0 175 0 175 1108 0 1108 0 25 -167z m169 -1121 c0 -5 27 -184
60 -397 l60 -389 -42 -43 -42 -43 -251 249 c-163 163 -263 255 -287 265 -33
14 -150 16 -973 16 l-935 0 0 175 0 175 1205 0 c663 0 1205 -4 1205 -8z m1670
-233 c180 -29 311 -158 342 -337 54 -315 -279 -568 -568 -433 -175 82 -268
265 -230 451 34 161 151 281 308 315 80 17 71 17 148 4z m-1980 -634 c242
-241 290 -284 322 -290 47 -9 72 0 117 40 l37 33 28 -191 c16 -105 31 -200 34
-209 4 -17 -55 -18 -1243 -18 -1387 0 -1302 -4 -1440 68 -87 46 -188 145 -233
229 -59 111 -72 189 -72 422 l0 206 1082 -3 1083 -4 285 -283z"/>
<path d="M1474 4076 c-67 -29 -92 -102 -59 -166 24 -46 62 -60 160 -60 98 0
136 14 160 60 34 65 7 138 -61 166 -42 18 -159 17 -200 0z"/>
<path d="M2874 4076 c-67 -29 -92 -102 -59 -166 24 -46 62 -60 160 -60 98 0
136 14 160 60 34 65 7 138 -61 166 -42 18 -159 17 -200 0z"/>
<path d="M2158 3834 c-57 -30 -76 -119 -36 -169 30 -38 76 -55 153 -55 77 0
123 17 153 55 41 52 16 153 -44 175 -40 16 -195 12 -226 -6z"/>
</g>
</svg>
