<svg id="Capa_1" enable-background="new 0 0 512 512" height="512" viewBox="0 0 512 512" width="512" xmlns="http://www.w3.org/2000/svg"><g><g><path d="m90.176 34.703c-6.171-11.663-20.627-16.114-32.29-9.944-11.662 6.171-16.114 20.627-9.944 32.29l72.398 136.832 42.234-22.346z" fill="#f9ed80"/><path d="m256.486 34.703c-6.171-11.663-20.627-16.114-32.29-9.944-11.662 6.171-16.114 20.627-9.944 32.29l72.398 136.832 42.234-22.346z" fill="#f9ed80"/><path d="m456.785 279.546-58.494-110.552c-22.323-42.191-74.622-58.296-116.813-35.973-42.191 22.323-58.296 74.622-35.973 116.813l58.494 110.552c22.323 42.191 74.622 58.296 116.813 35.973 42.19-22.324 58.296-74.623 35.973-116.813z" fill="#ff9c20"/><path d="m290.475 279.546-58.494-110.552c-22.323-42.191-74.622-58.296-116.813-35.973-42.191 22.323-58.296 74.622-35.973 116.813l58.494 110.552c22.323 42.191 74.622 58.296 116.813 35.973 42.19-22.324 58.296-74.623 35.973-116.813z" fill="#ffb25a"/><path d="m460.279 288.975h-408.558c-27.799 0-48.714 25.355-43.389 52.639 6.261 32.082 19.822 74.089 49.086 112.101 17.737 23.039 45.358 36.304 74.434 36.304h248.296c29.076 0 56.696-13.264 74.434-36.304 29.264-38.012 42.825-80.019 49.086-112.101 5.325-27.284-15.59-52.639-43.389-52.639z" fill="#ff6f7f"/><path d="m109.144 321.776c0-11.089.632-22.029 1.822-32.801h-59.245c-27.799 0-48.714 25.354-43.389 52.639 6.261 32.082 19.822 74.089 49.086 112.102 17.737 23.039 45.358 36.304 74.434 36.304h29.861c-33.134-47.749-52.569-105.722-52.569-168.244z" fill="#fc5c70"/><path d="m182.248 127.224c-21.45-6.956-45.575-5.582-67.08 5.797-42.191 22.323-58.296 74.622-35.973 116.813l30.312 57.29c3.359-68.768 30.231-131.351 72.741-179.9z" fill="#ff9c20"/><path d="m309.072 278.419h-233.218c-16.797 0-24.785 20.68-12.349 31.972l88.66 80.502c22.857 20.754 57.74 20.754 80.597 0l88.66-80.502c12.434-11.292 4.447-31.972-12.35-31.972z" fill="#dcdcdc"/><path d="m109.144 321.776c0-14.73 1.094-29.205 3.175-43.357h-36.465c-16.797 0-24.785 20.68-12.349 31.972l47.322 42.967c-1.104-10.377-1.683-20.912-1.683-31.582z" fill="#cececc"/></g><g><path d="m159.788 452.074c4.142 0 7.5-3.358 7.5-7.5v-18.487c0-4.142-3.358-7.5-7.5-7.5s-7.5 3.358-7.5 7.5v18.487c0 4.141 3.357 7.5 7.5 7.5z"/><path d="m352.205 452.074c4.142 0 7.5-3.358 7.5-7.5v-18.487c0-4.142-3.358-7.5-7.5-7.5s-7.5 3.358-7.5 7.5v18.487c0 4.141 3.358 7.5 7.5 7.5z"/><path d="m287.016 448.951c2.721-3.123 2.396-7.86-.727-10.582-3.123-2.721-7.86-2.396-10.582.727-10.439 11.978-28.994 11.964-39.421 0-2.722-3.124-7.459-3.448-10.582-.727s-3.448 7.459-.727 10.582c16.416 18.836 45.638 18.819 62.039 0z"/><path d="m51.47 458.296c18.911 24.564 48.958 39.228 80.378 39.228h248.298c31.419 0 61.467-14.665 80.378-39.228 31.016-40.286 44.584-84.905 50.505-115.241 5.814-29.793-15.141-57.849-44.831-61.236-.882-1.996-1.809-3.932-2.785-5.777l-31.503-59.541c-1.938-3.661-6.476-5.059-10.137-3.122-3.662 1.937-5.059 6.476-3.122 10.137l30.668 57.962h-119.372c-3.503-4.831-8.967-8.61-15.009-9.896-4.205-.957-7.117-.638-20.545-.661-7.01-13.249-39.532-74.715-46.723-88.305 4.057-11.271 10.518-21.413 19.468-30.038 37.521-36.132 99.924-26.565 124.521 19.924l12.279 23.207c1.937 3.661 6.475 5.059 10.137 3.122s5.059-6.476 3.122-10.137l-12.279-23.207c-19.075-36.052-58.448-54.582-96.678-49.001l-45.128-85.29c-8.113-15.334-27.09-21.181-42.427-13.066-15.299 8.095-21.16 27.127-13.066 42.426l45.11 85.258c-5.502 5.98-10.185 12.682-13.979 19.944-.305-.374-14.964-33.621-55.521-46.11-13.596-4.187-27.654-5.226-41.323-3.205l-45.105-85.246c-8.095-15.299-27.128-21.161-42.428-13.065-15.299 8.095-21.16 27.128-13.066 42.426l45.107 85.252c-9.36 10.163-16.412 22.367-20.599 35.963-7.384 23.978-4.989 49.396 6.745 71.572l9.301 17.578h-6.013c-8.441 0-16.069 3.998-20.851 10.556-1.15.237-25.441-2.724-43.2 18.835-9.851 11.96-13.799 27.538-10.833 42.741 5.922 30.336 19.49 74.955 50.506 115.241zm176.23-426.907c8.022-4.244 17.924-1.169 22.153 6.822l43.273 81.784c-8.036 2.59-13.306 5.519-15.159 6.398-3.259 1.673-8.758 5.039-13.659 8.829-.05.039-.103.075-.152.114l-43.278-81.794c-4.227-7.987-1.167-17.926 6.822-22.153zm-166.311.001c7.961-4.213 17.912-1.193 22.153 6.822l43.265 81.77c-10.618 3.441-20.421 8.724-28.963 15.355l-43.278-81.794c-4.226-7.988-1.166-17.926 6.823-22.153zm24.431 214.939c-9.86-18.634-11.873-39.993-5.668-60.142 5.817-18.889 18.386-34.808 35.534-44.861 39.41-23.029 88.914-8.037 109.662 31.178l7.554 14.276v.001c5.5 10.395 39.898 75.406 44.52 84.141h-178.59zm-35.857 50.192c-.08 5.887 1.906 11.914 5.987 16.8 1.688 2.023-.674-.254 42.811 39.221 3.073 2.789 7.815 2.551 10.594-.511 2.79-3.074 2.55-7.815-.511-10.595-42.059-38.219-42.219-37.583-43.414-41.299-1.984-6.184 2.192-14.214 10.419-14.214 250.18 0 233.449-.068 234.882.122 7.099 1.022 10.89 8.589 8.57 14.612-1.365 3.59 4.132-2.362-91.585 84.687-20.185 18.327-50.482 18.189-70.514 0-27.655-25.092-26.134-23.776-26.715-24.204-4.81-3.552-11.657-.267-11.94 5.681-.102 2.159.725 4.345 2.45 5.911 27.4 24.845 26.385 24.035 28.583 25.849 25.793 21.303 63.167 20.618 88.219-2.131 89.846-81.615 91.92-82.026 95.114-89.574 1.335-3.135 2.083-6.67 2.041-10.397h125.314l.653.021c.047.001.093.001.14.001h.009c22.821.487 39.584 21.4 35.235 43.681-5.611 28.751-18.437 70.995-47.668 108.964-16.091 20.901-41.696 33.379-68.492 33.379h-248.297c-26.796 0-52.401-12.478-68.492-33.379-29.232-37.969-42.057-80.213-47.668-108.964-4.302-22.041 12.029-42.614 34.275-43.661z"/></g></g></svg>